# xmcd
#
# Track frame offsets: 
#        150
#        12490
#        23607
#        36165
#        44617
#        54507
#        66117
#        74492
#        82207
#        93650
#        102942
#        113585
#        124567
#        132992
#        141150
#        150327
#
# Disc length: 2113 seconds
#
# Revision: 7
# Processed by: cddbd v1.5.2PL0 Copyright (c) Steve Scherf et al.
# Submitted via: ExactAudioCopyFreeDBPlugin 1.0
#
DISCID=db083f10
DTITLE=Johnny Cash - Johnny Cash
DYEAR=1995
DGENRE=Country
TTITLE0=I Walk The Line
TTITLE1=Oh Lonesome Me
TTITLE2=Folsom Prison Blues
TTITLE3=Guess Things Happen This Way
TTITLE4=Born To Loose
TTITLE5=Thanks A Lot
TTITLE6=Country Boy
TTITLE7=Hey Good Looking
TTITLE8=Big River
TTITLE9=Luther's Boogie
TTITLE10=Train Of Love
TTITLE11=I Love You Because
TTITLE12=I Forget To Remember To Forget
TTITLE13=Sugartime
TTITLE14=Blue Train
TTITLE15=The Wreck Of The Old 97
EXTD=YEAR: 1995
EXTT0=
EXTT1=
EXTT2=
EXTT3=
EXTT4=
EXTT5=
EXTT6=
EXTT7=
EXTT8=
EXTT9=
EXTT10=
EXTT11=
EXTT12=
EXTT13=
EXTT14=
EXTT15=
PLAYORDER=
